<?xml version="1.0" encoding="UTF-8" standalone="no"?>
<!DOCTYPE svg PUBLIC "-//W3C//DTD SVG 1.1//EN"
 "http://www.w3.org/Graphics/SVG/1.1/DTD/svg11.dtd">
<!-- Generated by graphviz version 2.40.1 (20161225.0304)
 -->
<!-- Title: dependencies Pages: 1 -->
<svg width="912pt" height="284pt"
 viewBox="0.00 0.00 912.00 284.00" xmlns="http://www.w3.org/2000/svg" xmlns:xlink="http://www.w3.org/1999/xlink">
<g id="graph0" class="graph" transform="scale(1 1) rotate(0) translate(4 280)">
<title>dependencies</title>
<polygon fill="#ffffff" stroke="transparent" points="-4,4 -4,-280 908,-280 908,4 -4,4"/>
<text text-anchor="start" x="431.0091" y="-42.4" font-family="sans-serif" font-weight="bold" font-size="14.00" fill="#000000">Legend</text>
<polygon fill="#ffffb3" stroke="transparent" points="218,-10 218,-30 238,-30 238,-10 218,-10"/>
<text text-anchor="start" x="241.629" y="-15.4" font-family="sans-serif" font-size="14.00" fill="#000000"> &#160;Declarations</text>
<polygon fill="#8dd3c7" stroke="transparent" points="331,-10 331,-30 351,-30 351,-10 331,-10"/>
<text text-anchor="start" x="354.7251" y="-15.4" font-family="sans-serif" font-size="14.00" fill="#000000"> &#160;Module</text>
<polygon fill="#80b1d3" stroke="transparent" points="417,-10 417,-30 437,-30 437,-10 417,-10"/>
<text text-anchor="start" x="440.7812" y="-15.4" font-family="sans-serif" font-size="14.00" fill="#000000"> &#160;Bootstrap</text>
<polygon fill="#fdb462" stroke="transparent" points="514,-10 514,-30 534,-30 534,-10 514,-10"/>
<text text-anchor="start" x="537.6732" y="-15.4" font-family="sans-serif" font-size="14.00" fill="#000000"> &#160;Providers</text>
<polygon fill="#fb8072" stroke="transparent" points="610,-10 610,-30 630,-30 630,-10 610,-10"/>
<text text-anchor="start" x="633.7258" y="-15.4" font-family="sans-serif" font-size="14.00" fill="#000000"> &#160;Exports</text>
<g id="clust1" class="cluster">
<title>cluster_NeoDirectivesModule</title>
<polygon fill="none" stroke="#000000" stroke-dasharray="1,5" points="8,-70 8,-268 896,-268 896,-70 8,-70"/>
</g>
<g id="clust2" class="cluster">
<title>cluster_NeoDirectivesModule_declarations</title>
<polygon fill="none" stroke="#000000" points="27,-78 27,-130 881,-130 881,-78 27,-78"/>
</g>
<g id="clust10" class="cluster">
<title>cluster_NeoDirectivesModule_exports</title>
<polygon fill="none" stroke="#000000" points="16,-208 16,-260 888,-260 888,-208 16,-208"/>
</g>
<!-- CommandDirective -->
<g id="node1" class="node">
<title>CommandDirective</title>
<polygon fill="#ffffb3" stroke="#000000" points="873.4159,-122 746.5841,-122 746.5841,-86 873.4159,-86 873.4159,-122"/>
<text text-anchor="middle" x="810" y="-99.8" font-family="Times,serif" font-size="14.00" fill="#000000">CommandDirective</text>
</g>
<!-- NeoDirectivesModule -->
<g id="node7" class="node">
<title>NeoDirectivesModule</title>
<polygon fill="#8dd3c7" stroke="#000000" points="474.399,-187 471.399,-191 450.399,-191 447.399,-187 333.601,-187 333.601,-151 474.399,-151 474.399,-187"/>
<text text-anchor="middle" x="404" y="-164.8" font-family="Times,serif" font-size="14.00" fill="#000000">NeoDirectivesModule</text>
</g>
<!-- CommandDirective&#45;&gt;NeoDirectivesModule -->
<g id="edge1" class="edge">
<title>CommandDirective&#45;&gt;NeoDirectivesModule</title>
<path fill="none" stroke="#000000" d="M832.1525,-122.2667C832.1525,-140.5552 832.1525,-166 832.1525,-166 832.1525,-166 484.2212,-166 484.2212,-166"/>
<polygon fill="#000000" stroke="#000000" points="484.2213,-162.5001 474.2212,-166 484.2212,-169.5001 484.2213,-162.5001"/>
</g>
<!-- OnReturnDirective -->
<g id="node2" class="node">
<title>OnReturnDirective</title>
<polygon fill="#ffffb3" stroke="#000000" points="728.7921,-122 605.2079,-122 605.2079,-86 728.7921,-86 728.7921,-122"/>
<text text-anchor="middle" x="667" y="-99.8" font-family="Times,serif" font-size="14.00" fill="#000000">OnReturnDirective</text>
</g>
<!-- OnReturnDirective&#45;&gt;NeoDirectivesModule -->
<g id="edge2" class="edge">
<title>OnReturnDirective&#45;&gt;NeoDirectivesModule</title>
<path fill="none" stroke="#000000" d="M687.632,-122.0091C687.632,-138.0494 687.632,-159 687.632,-159 687.632,-159 484.4757,-159 484.4757,-159"/>
<polygon fill="#000000" stroke="#000000" points="484.4757,-155.5001 474.4757,-159 484.4757,-162.5001 484.4757,-155.5001"/>
</g>
<!-- StringsDirective -->
<g id="node3" class="node">
<title>StringsDirective</title>
<polygon fill="#ffffb3" stroke="#000000" points="586.7521,-122 479.2479,-122 479.2479,-86 586.7521,-86 586.7521,-122"/>
<text text-anchor="middle" x="533" y="-99.8" font-family="Times,serif" font-size="14.00" fill="#000000">StringsDirective</text>
</g>
<!-- StringsDirective&#45;&gt;NeoDirectivesModule -->
<g id="edge3" class="edge">
<title>StringsDirective&#45;&gt;NeoDirectivesModule</title>
<path fill="none" stroke="#000000" d="M479.1687,-104C472.2116,-104 467.4496,-104 467.4496,-104 467.4496,-104 467.4496,-140.8939 467.4496,-140.8939"/>
<polygon fill="#000000" stroke="#000000" points="463.9496,-140.8938 467.4496,-150.8939 470.9496,-140.8939 463.9496,-140.8938"/>
</g>
<!-- NumbersDirective -->
<g id="node4" class="node">
<title>NumbersDirective</title>
<polygon fill="#ffffb3" stroke="#000000" points="460.9005,-122 341.0995,-122 341.0995,-86 460.9005,-86 460.9005,-122"/>
<text text-anchor="middle" x="401" y="-99.8" font-family="Times,serif" font-size="14.00" fill="#000000">NumbersDirective</text>
</g>
<!-- NumbersDirective&#45;&gt;NeoDirectivesModule -->
<g id="edge4" class="edge">
<title>NumbersDirective&#45;&gt;NeoDirectivesModule</title>
<path fill="none" stroke="#000000" d="M401,-122.1061C401,-122.1061 401,-140.991 401,-140.991"/>
<polygon fill="#000000" stroke="#000000" points="397.5001,-140.9909 401,-150.991 404.5001,-140.991 397.5001,-140.9909"/>
</g>
<!-- NgbTabSetDirective -->
<g id="node5" class="node">
<title>NgbTabSetDirective</title>
<polygon fill="#ffffb3" stroke="#000000" points="322.8445,-122 191.1555,-122 191.1555,-86 322.8445,-86 322.8445,-122"/>
<text text-anchor="middle" x="257" y="-99.8" font-family="Times,serif" font-size="14.00" fill="#000000">NgbTabSetDirective</text>
</g>
<!-- NgbTabSetDirective&#45;&gt;NeoDirectivesModule -->
<g id="edge5" class="edge">
<title>NgbTabSetDirective&#45;&gt;NeoDirectivesModule</title>
<path fill="none" stroke="#000000" d="M323.1496,-104C331.6987,-104 337.5504,-104 337.5504,-104 337.5504,-104 337.5504,-140.8939 337.5504,-140.8939"/>
<polygon fill="#000000" stroke="#000000" points="334.0505,-140.8938 337.5504,-150.8939 341.0505,-140.8939 334.0505,-140.8938"/>
</g>
<!-- KeyListenerDirective -->
<g id="node6" class="node">
<title>KeyListenerDirective</title>
<polygon fill="#ffffb3" stroke="#000000" points="172.7725,-122 35.2275,-122 35.2275,-86 172.7725,-86 172.7725,-122"/>
<text text-anchor="middle" x="104" y="-99.8" font-family="Times,serif" font-size="14.00" fill="#000000">KeyListenerDirective</text>
</g>
<!-- KeyListenerDirective&#45;&gt;NeoDirectivesModule -->
<g id="edge6" class="edge">
<title>KeyListenerDirective&#45;&gt;NeoDirectivesModule</title>
<path fill="none" stroke="#000000" d="M168.5111,-122.027C168.5111,-138.3976 168.5111,-160 168.5111,-160 168.5111,-160 323.6645,-160 323.6645,-160"/>
<polygon fill="#000000" stroke="#000000" points="323.6646,-163.5001 333.6645,-160 323.6645,-156.5001 323.6646,-163.5001"/>
</g>
<!-- CommandDirective  -->
<g id="node8" class="node">
<title>CommandDirective </title>
<polygon fill="#fb8072" stroke="#000000" points="879.9152,-252 750.0848,-252 750.0848,-216 879.9152,-216 879.9152,-252"/>
<text text-anchor="middle" x="815" y="-229.8" font-family="Times,serif" font-size="14.00" fill="#000000">CommandDirective </text>
</g>
<!-- NeoDirectivesModule&#45;&gt;CommandDirective  -->
<g id="edge7" class="edge">
<title>NeoDirectivesModule&#45;&gt;CommandDirective </title>
<path fill="none" stroke="#000000" stroke-dasharray="5,2" d="M474.5495,-173C586.2017,-173 791.0975,-173 791.0975,-173 791.0975,-173 791.0975,-205.698 791.0975,-205.698"/>
<polygon fill="#000000" stroke="#000000" points="787.5976,-205.698 791.0975,-215.698 794.5976,-205.698 787.5976,-205.698"/>
</g>
<!-- OnReturnDirective  -->
<g id="node9" class="node">
<title>OnReturnDirective </title>
<polygon fill="#fb8072" stroke="#000000" points="732.292,-252 605.708,-252 605.708,-216 732.292,-216 732.292,-252"/>
<text text-anchor="middle" x="669" y="-229.8" font-family="Times,serif" font-size="14.00" fill="#000000">OnReturnDirective </text>
</g>
<!-- NeoDirectivesModule&#45;&gt;OnReturnDirective  -->
<g id="edge8" class="edge">
<title>NeoDirectivesModule&#45;&gt;OnReturnDirective </title>
<path fill="none" stroke="#000000" stroke-dasharray="5,2" d="M474.5011,-180C546.1347,-180 646.618,-180 646.618,-180 646.618,-180 646.618,-205.7181 646.618,-205.7181"/>
<polygon fill="#000000" stroke="#000000" points="643.1181,-205.718 646.618,-215.7181 650.1181,-205.7181 643.1181,-205.718"/>
</g>
<!-- StringsDirective  -->
<g id="node10" class="node">
<title>StringsDirective </title>
<polygon fill="#fb8072" stroke="#000000" points="587.7521,-252 476.2479,-252 476.2479,-216 587.7521,-216 587.7521,-252"/>
<text text-anchor="middle" x="532" y="-229.8" font-family="Times,serif" font-size="14.00" fill="#000000">StringsDirective </text>
</g>
<!-- NeoDirectivesModule&#45;&gt;StringsDirective  -->
<g id="edge9" class="edge">
<title>NeoDirectivesModule&#45;&gt;StringsDirective </title>
<path fill="none" stroke="#000000" stroke-dasharray="5,2" d="M466.3246,-187.1061C466.3246,-206.3391 466.3246,-234 466.3246,-234 466.3246,-234 467.322,-234 467.322,-234"/>
<polygon fill="#000000" stroke="#000000" points="466.2993,-237.5001 476.2992,-234 466.2992,-230.5001 466.2993,-237.5001"/>
</g>
<!-- NumbersDirective  -->
<g id="node11" class="node">
<title>NumbersDirective </title>
<polygon fill="#fb8072" stroke="#000000" points="458.3998,-252 335.6002,-252 335.6002,-216 458.3998,-216 458.3998,-252"/>
<text text-anchor="middle" x="397" y="-229.8" font-family="Times,serif" font-size="14.00" fill="#000000">NumbersDirective </text>
</g>
<!-- NeoDirectivesModule&#45;&gt;NumbersDirective  -->
<g id="edge10" class="edge">
<title>NeoDirectivesModule&#45;&gt;NumbersDirective </title>
<path fill="none" stroke="#000000" stroke-dasharray="5,2" d="M397,-187.1061C397,-187.1061 397,-205.991 397,-205.991"/>
<polygon fill="#000000" stroke="#000000" points="393.5001,-205.9909 397,-215.991 400.5001,-205.991 393.5001,-205.9909"/>
</g>
<!-- NgbTabSetDirective  -->
<g id="node12" class="node">
<title>NgbTabSetDirective </title>
<polygon fill="#fb8072" stroke="#000000" points="317.8448,-252 182.1552,-252 182.1552,-216 317.8448,-216 317.8448,-252"/>
<text text-anchor="middle" x="250" y="-229.8" font-family="Times,serif" font-size="14.00" fill="#000000">NgbTabSetDirective </text>
</g>
<!-- NeoDirectivesModule&#45;&gt;NgbTabSetDirective  -->
<g id="edge11" class="edge">
<title>NeoDirectivesModule&#45;&gt;NgbTabSetDirective </title>
<path fill="none" stroke="#000000" stroke-dasharray="5,2" d="M333.5688,-178C294.7607,-178 254.375,-178 254.375,-178 254.375,-178 254.375,-205.973 254.375,-205.973"/>
<polygon fill="#000000" stroke="#000000" points="250.8751,-205.973 254.375,-215.973 257.8751,-205.973 250.8751,-205.973"/>
</g>
<!-- KeyListenerDirective  -->
<g id="node13" class="node">
<title>KeyListenerDirective </title>
<polygon fill="#fb8072" stroke="#000000" points="164.2724,-252 23.7276,-252 23.7276,-216 164.2724,-216 164.2724,-252"/>
<text text-anchor="middle" x="94" y="-229.8" font-family="Times,serif" font-size="14.00" fill="#000000">KeyListenerDirective </text>
</g>
<!-- NeoDirectivesModule&#45;&gt;KeyListenerDirective  -->
<g id="edge12" class="edge">
<title>NeoDirectivesModule&#45;&gt;KeyListenerDirective </title>
<path fill="none" stroke="#000000" stroke-dasharray="5,2" d="M333.4632,-169C243.6216,-169 99.875,-169 99.875,-169 99.875,-169 99.875,-205.8939 99.875,-205.8939"/>
<polygon fill="#000000" stroke="#000000" points="96.3751,-205.8938 99.875,-215.8939 103.3751,-205.8939 96.3751,-205.8938"/>
</g>
</g>
</svg>
