<?xml version="1.0" encoding="UTF-8" standalone="no"?>
<!DOCTYPE svg PUBLIC "-//W3C//DTD SVG 1.1//EN"
 "http://www.w3.org/Graphics/SVG/1.1/DTD/svg11.dtd">
<!-- Generated by graphviz version 2.40.1 (20161225.0304)
 -->
<!-- Title: dependencies Pages: 1 -->
<svg width="759pt" height="284pt"
 viewBox="0.00 0.00 759.00 284.00" xmlns="http://www.w3.org/2000/svg" xmlns:xlink="http://www.w3.org/1999/xlink">
<g id="graph0" class="graph" transform="scale(1 1) rotate(0) translate(4 280)">
<title>dependencies</title>
<polygon fill="#ffffff" stroke="transparent" points="-4,4 -4,-280 755,-280 755,4 -4,4"/>
<text text-anchor="start" x="354.5091" y="-42.4" font-family="sans-serif" font-weight="bold" font-size="14.00" fill="#000000">Legend</text>
<polygon fill="#ffffb3" stroke="transparent" points="141.5,-10 141.5,-30 161.5,-30 161.5,-10 141.5,-10"/>
<text text-anchor="start" x="165.129" y="-15.4" font-family="sans-serif" font-size="14.00" fill="#000000"> &#160;Declarations</text>
<polygon fill="#8dd3c7" stroke="transparent" points="254.5,-10 254.5,-30 274.5,-30 274.5,-10 254.5,-10"/>
<text text-anchor="start" x="278.2251" y="-15.4" font-family="sans-serif" font-size="14.00" fill="#000000"> &#160;Module</text>
<polygon fill="#80b1d3" stroke="transparent" points="340.5,-10 340.5,-30 360.5,-30 360.5,-10 340.5,-10"/>
<text text-anchor="start" x="364.2812" y="-15.4" font-family="sans-serif" font-size="14.00" fill="#000000"> &#160;Bootstrap</text>
<polygon fill="#fdb462" stroke="transparent" points="437.5,-10 437.5,-30 457.5,-30 457.5,-10 437.5,-10"/>
<text text-anchor="start" x="461.1732" y="-15.4" font-family="sans-serif" font-size="14.00" fill="#000000"> &#160;Providers</text>
<polygon fill="#fb8072" stroke="transparent" points="533.5,-10 533.5,-30 553.5,-30 553.5,-10 533.5,-10"/>
<text text-anchor="start" x="557.2258" y="-15.4" font-family="sans-serif" font-size="14.00" fill="#000000"> &#160;Exports</text>
<g id="clust1" class="cluster">
<title>cluster_NeoDirectivesModule</title>
<polygon fill="none" stroke="#000000" stroke-dasharray="1,5" points="8,-70 8,-268 743,-268 743,-70 8,-70"/>
</g>
<g id="clust2" class="cluster">
<title>cluster_NeoDirectivesModule_declarations</title>
<polygon fill="none" stroke="#000000" points="24,-78 24,-130 727,-130 727,-78 24,-78"/>
</g>
<g id="clust9" class="cluster">
<title>cluster_NeoDirectivesModule_exports</title>
<polygon fill="none" stroke="#000000" points="16,-208 16,-260 735,-260 735,-208 16,-208"/>
</g>
<!-- CommandDirective -->
<g id="node1" class="node">
<title>CommandDirective</title>
<polygon fill="#ffffb3" stroke="#000000" points="719.4159,-122 592.5841,-122 592.5841,-86 719.4159,-86 719.4159,-122"/>
<text text-anchor="middle" x="656" y="-99.8" font-family="Times,serif" font-size="14.00" fill="#000000">CommandDirective</text>
</g>
<!-- NeoDirectivesModule -->
<g id="node6" class="node">
<title>NeoDirectivesModule</title>
<polygon fill="#8dd3c7" stroke="#000000" points="449.399,-187 446.399,-191 425.399,-191 422.399,-187 308.601,-187 308.601,-151 449.399,-151 449.399,-187"/>
<text text-anchor="middle" x="379" y="-164.8" font-family="Times,serif" font-size="14.00" fill="#000000">NeoDirectivesModule</text>
</g>
<!-- CommandDirective&#45;&gt;NeoDirectivesModule -->
<g id="edge1" class="edge">
<title>CommandDirective&#45;&gt;NeoDirectivesModule</title>
<path fill="none" stroke="#000000" d="M678.4859,-122.0225C678.4859,-139.3734 678.4859,-163 678.4859,-163 678.4859,-163 459.2161,-163 459.2161,-163"/>
<polygon fill="#000000" stroke="#000000" points="459.2162,-159.5001 449.2161,-163 459.2161,-166.5001 459.2162,-159.5001"/>
</g>
<!-- OnReturnDirective -->
<g id="node2" class="node">
<title>OnReturnDirective</title>
<polygon fill="#ffffb3" stroke="#000000" points="574.7921,-122 451.2079,-122 451.2079,-86 574.7921,-86 574.7921,-122"/>
<text text-anchor="middle" x="513" y="-99.8" font-family="Times,serif" font-size="14.00" fill="#000000">OnReturnDirective</text>
</g>
<!-- OnReturnDirective&#45;&gt;NeoDirectivesModule -->
<g id="edge2" class="edge">
<title>OnReturnDirective&#45;&gt;NeoDirectivesModule</title>
<path fill="none" stroke="#000000" d="M451.348,-104C445.1234,-104 441.0376,-104 441.0376,-104 441.0376,-104 441.0376,-140.8939 441.0376,-140.8939"/>
<polygon fill="#000000" stroke="#000000" points="437.5376,-140.8938 441.0376,-150.8939 444.5376,-140.8939 437.5376,-140.8938"/>
</g>
<!-- StringsDirective -->
<g id="node3" class="node">
<title>StringsDirective</title>
<polygon fill="#ffffb3" stroke="#000000" points="432.7521,-122 325.2479,-122 325.2479,-86 432.7521,-86 432.7521,-122"/>
<text text-anchor="middle" x="379" y="-99.8" font-family="Times,serif" font-size="14.00" fill="#000000">StringsDirective</text>
</g>
<!-- StringsDirective&#45;&gt;NeoDirectivesModule -->
<g id="edge3" class="edge">
<title>StringsDirective&#45;&gt;NeoDirectivesModule</title>
<path fill="none" stroke="#000000" d="M379,-122.1061C379,-122.1061 379,-140.991 379,-140.991"/>
<polygon fill="#000000" stroke="#000000" points="375.5001,-140.9909 379,-150.991 382.5001,-140.991 375.5001,-140.9909"/>
</g>
<!-- NumbersDirective -->
<g id="node4" class="node">
<title>NumbersDirective</title>
<polygon fill="#ffffb3" stroke="#000000" points="306.9005,-122 187.0995,-122 187.0995,-86 306.9005,-86 306.9005,-122"/>
<text text-anchor="middle" x="247" y="-99.8" font-family="Times,serif" font-size="14.00" fill="#000000">NumbersDirective</text>
</g>
<!-- NumbersDirective&#45;&gt;NeoDirectivesModule -->
<g id="edge4" class="edge">
<title>NumbersDirective&#45;&gt;NeoDirectivesModule</title>
<path fill="none" stroke="#000000" d="M306.9385,-104C312.9901,-104 316.9625,-104 316.9625,-104 316.9625,-104 316.9625,-140.8939 316.9625,-140.8939"/>
<polygon fill="#000000" stroke="#000000" points="313.4625,-140.8938 316.9625,-150.8939 320.4625,-140.8939 313.4625,-140.8938"/>
</g>
<!-- KeyListenerDirective -->
<g id="node5" class="node">
<title>KeyListenerDirective</title>
<polygon fill="#ffffb3" stroke="#000000" points="169.7725,-122 32.2275,-122 32.2275,-86 169.7725,-86 169.7725,-122"/>
<text text-anchor="middle" x="101" y="-99.8" font-family="Times,serif" font-size="14.00" fill="#000000">KeyListenerDirective</text>
</g>
<!-- KeyListenerDirective&#45;&gt;NeoDirectivesModule -->
<g id="edge5" class="edge">
<title>KeyListenerDirective&#45;&gt;NeoDirectivesModule</title>
<path fill="none" stroke="#000000" d="M120.3787,-122.0225C120.3787,-139.3734 120.3787,-163 120.3787,-163 120.3787,-163 298.6722,-163 298.6722,-163"/>
<polygon fill="#000000" stroke="#000000" points="298.6722,-166.5001 308.6722,-163 298.6722,-159.5001 298.6722,-166.5001"/>
</g>
<!-- CommandDirective  -->
<g id="node7" class="node">
<title>CommandDirective </title>
<polygon fill="#fb8072" stroke="#000000" points="726.9152,-252 597.0848,-252 597.0848,-216 726.9152,-216 726.9152,-252"/>
<text text-anchor="middle" x="662" y="-229.8" font-family="Times,serif" font-size="14.00" fill="#000000">CommandDirective </text>
</g>
<!-- NeoDirectivesModule&#45;&gt;CommandDirective  -->
<g id="edge6" class="edge">
<title>NeoDirectivesModule&#45;&gt;CommandDirective </title>
<path fill="none" stroke="#000000" stroke-dasharray="5,2" d="M449.3666,-175C525.9918,-175 637.7641,-175 637.7641,-175 637.7641,-175 637.7641,-205.9775 637.7641,-205.9775"/>
<polygon fill="#000000" stroke="#000000" points="634.2642,-205.9774 637.7641,-215.9775 641.2642,-205.9775 634.2642,-205.9774"/>
</g>
<!-- OnReturnDirective  -->
<g id="node8" class="node">
<title>OnReturnDirective </title>
<polygon fill="#fb8072" stroke="#000000" points="579.292,-252 452.708,-252 452.708,-216 579.292,-216 579.292,-252"/>
<text text-anchor="middle" x="516" y="-229.8" font-family="Times,serif" font-size="14.00" fill="#000000">OnReturnDirective </text>
</g>
<!-- NeoDirectivesModule&#45;&gt;OnReturnDirective  -->
<g id="edge7" class="edge">
<title>NeoDirectivesModule&#45;&gt;OnReturnDirective </title>
<path fill="none" stroke="#000000" stroke-dasharray="5,2" d="M441.9126,-187.1061C441.9126,-206.3391 441.9126,-234 441.9126,-234 441.9126,-234 442.974,-234 442.974,-234"/>
<polygon fill="#000000" stroke="#000000" points="442.5275,-237.5001 452.5275,-234 442.5274,-230.5001 442.5275,-237.5001"/>
</g>
<!-- StringsDirective  -->
<g id="node9" class="node">
<title>StringsDirective </title>
<polygon fill="#fb8072" stroke="#000000" points="434.7521,-252 323.2479,-252 323.2479,-216 434.7521,-216 434.7521,-252"/>
<text text-anchor="middle" x="379" y="-229.8" font-family="Times,serif" font-size="14.00" fill="#000000">StringsDirective </text>
</g>
<!-- NeoDirectivesModule&#45;&gt;StringsDirective  -->
<g id="edge8" class="edge">
<title>NeoDirectivesModule&#45;&gt;StringsDirective </title>
<path fill="none" stroke="#000000" stroke-dasharray="5,2" d="M379,-187.1061C379,-187.1061 379,-205.991 379,-205.991"/>
<polygon fill="#000000" stroke="#000000" points="375.5001,-205.9909 379,-215.991 382.5001,-205.991 375.5001,-205.9909"/>
</g>
<!-- NumbersDirective  -->
<g id="node10" class="node">
<title>NumbersDirective </title>
<polygon fill="#fb8072" stroke="#000000" points="305.3998,-252 182.6002,-252 182.6002,-216 305.3998,-216 305.3998,-252"/>
<text text-anchor="middle" x="244" y="-229.8" font-family="Times,serif" font-size="14.00" fill="#000000">NumbersDirective </text>
</g>
<!-- NeoDirectivesModule&#45;&gt;NumbersDirective  -->
<g id="edge9" class="edge">
<title>NeoDirectivesModule&#45;&gt;NumbersDirective </title>
<path fill="none" stroke="#000000" stroke-dasharray="5,2" d="M316.0875,-187.1061C316.0875,-206.3391 316.0875,-234 316.0875,-234 316.0875,-234 315.0238,-234 315.0238,-234"/>
<polygon fill="#000000" stroke="#000000" points="315.4507,-230.5001 305.4507,-234 315.4507,-237.5001 315.4507,-230.5001"/>
</g>
<!-- KeyListenerDirective  -->
<g id="node11" class="node">
<title>KeyListenerDirective </title>
<polygon fill="#fb8072" stroke="#000000" points="164.2724,-252 23.7276,-252 23.7276,-216 164.2724,-216 164.2724,-252"/>
<text text-anchor="middle" x="94" y="-229.8" font-family="Times,serif" font-size="14.00" fill="#000000">KeyListenerDirective </text>
</g>
<!-- NeoDirectivesModule&#45;&gt;KeyListenerDirective  -->
<g id="edge10" class="edge">
<title>NeoDirectivesModule&#45;&gt;KeyListenerDirective </title>
<path fill="none" stroke="#000000" stroke-dasharray="5,2" d="M308.4289,-175C219.0046,-175 76.3713,-175 76.3713,-175 76.3713,-175 76.3713,-205.9775 76.3713,-205.9775"/>
<polygon fill="#000000" stroke="#000000" points="72.8714,-205.9774 76.3713,-215.9775 79.8714,-205.9775 72.8714,-205.9774"/>
</g>
</g>
</svg>
